<mxfile host="app.diagrams.net" agent="Mozilla/5.0 (Windows NT 10.0; Win64; x64) AppleWebKit/537.36 (KHTML, like Gecko) Chrome/128.0.0.0 Safari/537.36 Edg/128.0.0.0" version="24.7.16">
  <diagram name="Page-1" id="zaTo76ql84y3UghPxRbT">
    <mxGraphModel dx="1515" dy="681" grid="1" gridSize="10" guides="1" tooltips="1" connect="1" arrows="1" fold="1" page="1" pageScale="1" pageWidth="850" pageHeight="1100" math="0" shadow="0">
      <root>
        <mxCell id="0" />
        <mxCell id="1" parent="0" />
        <mxCell id="JjCetvQxHWMx8wX9W_r7-147" value="output_variables.f90" style="rounded=0;whiteSpace=wrap;html=1;fillColor=#F8CECC;" vertex="1" parent="1">
          <mxGeometry x="518.54" y="30" width="185" height="50" as="geometry" />
        </mxCell>
        <mxCell id="JjCetvQxHWMx8wX9W_r7-148" value="" style="edgeStyle=orthogonalEdgeStyle;rounded=0;orthogonalLoop=1;jettySize=auto;html=1;" edge="1" parent="1" source="JjCetvQxHWMx8wX9W_r7-149" target="JjCetvQxHWMx8wX9W_r7-154">
          <mxGeometry relative="1" as="geometry" />
        </mxCell>
        <mxCell id="JjCetvQxHWMx8wX9W_r7-149" value="&lt;b&gt;output_variables_init(shd)&lt;/b&gt;" style="rounded=1;whiteSpace=wrap;html=1;" vertex="1" parent="1">
          <mxGeometry x="265.12" y="160" width="160" height="50" as="geometry" />
        </mxCell>
        <mxCell id="JjCetvQxHWMx8wX9W_r7-150" value="" style="group" vertex="1" connectable="0" parent="1">
          <mxGeometry width="380" height="130" as="geometry" />
        </mxCell>
        <mxCell id="JjCetvQxHWMx8wX9W_r7-151" value="" style="rounded=0;whiteSpace=wrap;html=1;" vertex="1" parent="JjCetvQxHWMx8wX9W_r7-150">
          <mxGeometry width="380" height="130" as="geometry" />
        </mxCell>
        <mxCell id="JjCetvQxHWMx8wX9W_r7-152" value="&lt;font style=&quot;font-size: 9px;&quot;&gt;Dependencies&lt;/font&gt;&lt;div&gt;&lt;div&gt;&lt;font style=&quot;font-size: 9px;&quot;&gt;Driver\MESH_Driver\output_variables.f90: output_variables_series_init&lt;/font&gt;&lt;/div&gt;&lt;div&gt;&lt;font style=&quot;font-size: 9px;&quot;&gt;Driver\MESH_Driver\output_variables.f90: output_variables_group_associate_ts&lt;/font&gt;&lt;/div&gt;&lt;/div&gt;&lt;div&gt;&lt;font size=&quot;1&quot; style=&quot;&quot;&gt;&lt;div style=&quot;&quot;&gt;Driver\MESH_Driver\output_variables.f90: output_variables_activate_vnames&lt;/div&gt;&lt;div style=&quot;&quot;&gt;Driver\MESH_Driver\output_variables.f90: output_variables_activate_pntr&lt;/div&gt;&lt;div style=&quot;&quot;&gt;Driver\MESH_Driver\output_variables.f90: output_variables_allocate&lt;/div&gt;&lt;div style=&quot;&quot;&gt;Driver\MESH_Driver\output_variables.f90: output_variables_group_reset&lt;br&gt;&lt;/div&gt;&lt;/font&gt;&lt;/div&gt;" style="text;html=1;align=left;verticalAlign=middle;whiteSpace=wrap;rounded=0;" vertex="1" parent="JjCetvQxHWMx8wX9W_r7-150">
          <mxGeometry x="8.768500000000003" width="361.7315" height="126.48648648648648" as="geometry" />
        </mxCell>
        <mxCell id="JjCetvQxHWMx8wX9W_r7-153" value="" style="edgeStyle=orthogonalEdgeStyle;rounded=0;orthogonalLoop=1;jettySize=auto;html=1;" edge="1" parent="1" source="JjCetvQxHWMx8wX9W_r7-154" target="JjCetvQxHWMx8wX9W_r7-156">
          <mxGeometry relative="1" as="geometry" />
        </mxCell>
        <mxCell id="JjCetvQxHWMx8wX9W_r7-154" value="Initialize shd variable&lt;div&gt;type(ShedGridParams), intent(in) :: shd&lt;br&gt;&lt;/div&gt;" style="whiteSpace=wrap;html=1;rounded=1;" vertex="1" parent="1">
          <mxGeometry x="237.62" y="240" width="215" height="60" as="geometry" />
        </mxCell>
        <mxCell id="JjCetvQxHWMx8wX9W_r7-155" value="" style="edgeStyle=orthogonalEdgeStyle;rounded=0;orthogonalLoop=1;jettySize=auto;html=1;" edge="1" parent="1" source="JjCetvQxHWMx8wX9W_r7-156" target="JjCetvQxHWMx8wX9W_r7-158">
          <mxGeometry relative="1" as="geometry" />
        </mxCell>
        <mxCell id="JjCetvQxHWMx8wX9W_r7-156" value="&lt;div&gt;&lt;span style=&quot;background-color: initial;&quot;&gt;!&amp;gt; Initialize &#39;ts&#39; values&lt;/span&gt;&lt;/div&gt;&lt;div&gt;&lt;span style=&quot;background-color: initial;&quot;&gt;call output_variables_series_init(shd, out%ts)&lt;/span&gt;&lt;br&gt;&lt;/div&gt;" style="whiteSpace=wrap;html=1;rounded=1;fillColor=#CCFFCC;" vertex="1" parent="1">
          <mxGeometry x="216.37" y="330" width="257.5" height="60" as="geometry" />
        </mxCell>
        <mxCell id="JjCetvQxHWMx8wX9W_r7-157" value="" style="edgeStyle=orthogonalEdgeStyle;rounded=0;orthogonalLoop=1;jettySize=auto;html=1;" edge="1" parent="1" source="JjCetvQxHWMx8wX9W_r7-158" target="JjCetvQxHWMx8wX9W_r7-159">
          <mxGeometry relative="1" as="geometry" />
        </mxCell>
        <mxCell id="JjCetvQxHWMx8wX9W_r7-158" value="&lt;div&gt;!&amp;gt; Run the following for each Total, yearly, monthly, daily and hourly values:&lt;/div&gt;&lt;div&gt;call output_variables_series_init(shd, out%tot)&lt;/div&gt;&lt;div&gt;&amp;nbsp; &amp;nbsp; &amp;nbsp; &amp;nbsp; call output_variables_group_associate_ts(out%tot)&lt;/div&gt;" style="whiteSpace=wrap;html=1;rounded=1;fillColor=#CCFFCC;" vertex="1" parent="1">
          <mxGeometry x="190.12" y="420" width="310" height="80" as="geometry" />
        </mxCell>
        <mxCell id="JjCetvQxHWMx8wX9W_r7-159" value="end subroutine" style="whiteSpace=wrap;html=1;rounded=1;" vertex="1" parent="1">
          <mxGeometry x="275.12" y="530" width="140" height="40" as="geometry" />
        </mxCell>
        <mxCell id="JjCetvQxHWMx8wX9W_r7-160" value="" style="group" vertex="1" connectable="0" parent="1">
          <mxGeometry x="150.00190476190477" y="620" width="390.23809523809524" height="430" as="geometry" />
        </mxCell>
        <mxCell id="JjCetvQxHWMx8wX9W_r7-161" value="" style="rounded=0;whiteSpace=wrap;html=1;" vertex="1" parent="JjCetvQxHWMx8wX9W_r7-160">
          <mxGeometry x="0.2380952380952337" width="390" height="430" as="geometry" />
        </mxCell>
        <mxCell id="JjCetvQxHWMx8wX9W_r7-162" style="edgeStyle=none;rounded=0;orthogonalLoop=1;jettySize=auto;html=1;entryX=0.5;entryY=0;entryDx=0;entryDy=0;" edge="1" parent="JjCetvQxHWMx8wX9W_r7-160" source="JjCetvQxHWMx8wX9W_r7-163" target="JjCetvQxHWMx8wX9W_r7-167">
          <mxGeometry relative="1" as="geometry">
            <mxPoint x="95.17857142857142" y="88" as="targetPoint" />
          </mxGeometry>
        </mxCell>
        <mxCell id="JjCetvQxHWMx8wX9W_r7-163" value="&lt;b&gt;output_variables_reset(shd)&lt;/b&gt;" style="whiteSpace=wrap;html=1;rounded=1;fillColor=#FFFFFF;" vertex="1" parent="JjCetvQxHWMx8wX9W_r7-160">
          <mxGeometry x="15.249999999999995" y="19.995555555555597" width="186.69642857142856" height="39.11111111111111" as="geometry" />
        </mxCell>
        <mxCell id="JjCetvQxHWMx8wX9W_r7-164" value="end subroutine" style="whiteSpace=wrap;html=1;rounded=1;fillColor=#FFFFFF;" vertex="1" parent="JjCetvQxHWMx8wX9W_r7-160">
          <mxGeometry x="43.92857142857142" y="215.1111111111111" width="98.83928571428571" height="29.333333333333332" as="geometry" />
        </mxCell>
        <mxCell id="JjCetvQxHWMx8wX9W_r7-165" value="" style="edgeStyle=orthogonalEdgeStyle;rounded=0;orthogonalLoop=1;jettySize=auto;html=1;" edge="1" parent="JjCetvQxHWMx8wX9W_r7-160" source="JjCetvQxHWMx8wX9W_r7-167" target="JjCetvQxHWMx8wX9W_r7-168">
          <mxGeometry relative="1" as="geometry" />
        </mxCell>
        <mxCell id="JjCetvQxHWMx8wX9W_r7-166" style="rounded=0;orthogonalLoop=1;jettySize=auto;html=1;" edge="1" parent="JjCetvQxHWMx8wX9W_r7-160" source="JjCetvQxHWMx8wX9W_r7-167" target="JjCetvQxHWMx8wX9W_r7-171">
          <mxGeometry relative="1" as="geometry" />
        </mxCell>
        <mxCell id="JjCetvQxHWMx8wX9W_r7-167" value="&lt;div&gt;ro%RUNTILE == True&lt;/div&gt;" style="rhombus;whiteSpace=wrap;html=1;rounded=1;fillColor=#F19C99;" vertex="1" parent="JjCetvQxHWMx8wX9W_r7-160">
          <mxGeometry x="15.248095238095239" y="88" width="156.19047619047618" height="39.11111111111111" as="geometry" />
        </mxCell>
        <mxCell id="JjCetvQxHWMx8wX9W_r7-168" value="call output_variables_group_reset (out%ts%tile)" style="whiteSpace=wrap;html=1;fillColor=#FFFFFF;rounded=1;" vertex="1" parent="JjCetvQxHWMx8wX9W_r7-160">
          <mxGeometry x="190.97214285714284" y="80.66666666666663" width="189.74214285714285" height="53.77777777777778" as="geometry" />
        </mxCell>
        <mxCell id="JjCetvQxHWMx8wX9W_r7-169" style="edgeStyle=orthogonalEdgeStyle;rounded=0;orthogonalLoop=1;jettySize=auto;html=1;exitX=1;exitY=0.5;exitDx=0;exitDy=0;entryX=0;entryY=0.5;entryDx=0;entryDy=0;" edge="1" parent="JjCetvQxHWMx8wX9W_r7-160" source="JjCetvQxHWMx8wX9W_r7-171" target="JjCetvQxHWMx8wX9W_r7-172">
          <mxGeometry relative="1" as="geometry" />
        </mxCell>
        <mxCell id="JjCetvQxHWMx8wX9W_r7-170" style="rounded=0;orthogonalLoop=1;jettySize=auto;html=1;exitX=0.5;exitY=1;exitDx=0;exitDy=0;" edge="1" parent="JjCetvQxHWMx8wX9W_r7-160" source="JjCetvQxHWMx8wX9W_r7-171" target="JjCetvQxHWMx8wX9W_r7-164">
          <mxGeometry relative="1" as="geometry" />
        </mxCell>
        <mxCell id="JjCetvQxHWMx8wX9W_r7-171" value="&lt;div&gt;ro%RUNGRID== True&lt;/div&gt;" style="rhombus;whiteSpace=wrap;html=1;rounded=1;fillColor=#F19C99;" vertex="1" parent="JjCetvQxHWMx8wX9W_r7-160">
          <mxGeometry y="151.55555555555554" width="156.19047619047618" height="39.11111111111111" as="geometry" />
        </mxCell>
        <mxCell id="JjCetvQxHWMx8wX9W_r7-172" value="&lt;div&gt;call output_variables_group_reset (out%ts%grid)&lt;/div&gt;&lt;div&gt;&amp;nbsp; call output_variables_group_reset (out%ts%basin)&lt;/div&gt;" style="whiteSpace=wrap;html=1;fillColor=#FFFFFF;rounded=1;" vertex="1" parent="JjCetvQxHWMx8wX9W_r7-160">
          <mxGeometry x="192.495" y="136.8888888888889" width="186.69642857142856" height="68.44444444444444" as="geometry" />
        </mxCell>
        <mxCell id="JjCetvQxHWMx8wX9W_r7-173" style="edgeStyle=none;rounded=0;orthogonalLoop=1;jettySize=auto;html=1;entryX=0.5;entryY=0;entryDx=0;entryDy=0;" edge="1" parent="JjCetvQxHWMx8wX9W_r7-160" source="JjCetvQxHWMx8wX9W_r7-174" target="JjCetvQxHWMx8wX9W_r7-177">
          <mxGeometry relative="1" as="geometry">
            <mxPoint x="103.10523809523798" y="322.66666666666663" as="targetPoint" />
          </mxGeometry>
        </mxCell>
        <mxCell id="JjCetvQxHWMx8wX9W_r7-174" value="&lt;b&gt;output_variables_group_reset(group)&lt;/b&gt;" style="whiteSpace=wrap;html=1;rounded=1;fillColor=#FFFFFF;" vertex="1" parent="JjCetvQxHWMx8wX9W_r7-160">
          <mxGeometry x="29.29547619047618" y="283.55555555555554" width="224.52380952380952" height="39.11111111111111" as="geometry" />
        </mxCell>
        <mxCell id="JjCetvQxHWMx8wX9W_r7-175" value="end subroutine" style="whiteSpace=wrap;html=1;rounded=1;fillColor=#FFFFFF;" vertex="1" parent="JjCetvQxHWMx8wX9W_r7-160">
          <mxGeometry x="92.13285714285712" y="396" width="98.83928571428571" height="29.333333333333332" as="geometry" />
        </mxCell>
        <mxCell id="JjCetvQxHWMx8wX9W_r7-176" style="edgeStyle=orthogonalEdgeStyle;rounded=0;orthogonalLoop=1;jettySize=auto;html=1;entryX=0.5;entryY=0;entryDx=0;entryDy=0;" edge="1" parent="JjCetvQxHWMx8wX9W_r7-160" source="JjCetvQxHWMx8wX9W_r7-177" target="JjCetvQxHWMx8wX9W_r7-175">
          <mxGeometry relative="1" as="geometry" />
        </mxCell>
        <mxCell id="JjCetvQxHWMx8wX9W_r7-177" value="Initialize variablesin group to 0.0 or NO_data" style="whiteSpace=wrap;html=1;fillColor=#FFFFFF;rounded=1;" vertex="1" parent="JjCetvQxHWMx8wX9W_r7-160">
          <mxGeometry x="9.761904761904756" y="352" width="263.57142857142856" height="24.444444444444443" as="geometry" />
        </mxCell>
        <mxCell id="JjCetvQxHWMx8wX9W_r7-178" value="" style="group" vertex="1" connectable="0" parent="1">
          <mxGeometry x="690" y="140" width="410" height="930" as="geometry" />
        </mxCell>
        <mxCell id="JjCetvQxHWMx8wX9W_r7-179" value="" style="rounded=0;whiteSpace=wrap;html=1;" vertex="1" parent="JjCetvQxHWMx8wX9W_r7-178">
          <mxGeometry width="410" height="930" as="geometry" />
        </mxCell>
        <mxCell id="JjCetvQxHWMx8wX9W_r7-180" value="" style="edgeStyle=orthogonalEdgeStyle;rounded=0;orthogonalLoop=1;jettySize=auto;html=1;" edge="1" parent="JjCetvQxHWMx8wX9W_r7-178" source="JjCetvQxHWMx8wX9W_r7-181" target="JjCetvQxHWMx8wX9W_r7-186">
          <mxGeometry relative="1" as="geometry" />
        </mxCell>
        <mxCell id="JjCetvQxHWMx8wX9W_r7-181" value="&lt;b&gt;inteface output_variables_activate&lt;/b&gt;" style="rounded=1;whiteSpace=wrap;html=1;" vertex="1" parent="JjCetvQxHWMx8wX9W_r7-178">
          <mxGeometry x="110" y="20" width="210" height="50" as="geometry" />
        </mxCell>
        <mxCell id="JjCetvQxHWMx8wX9W_r7-182" value="" style="rounded=0;orthogonalLoop=1;jettySize=auto;html=1;" edge="1" parent="JjCetvQxHWMx8wX9W_r7-178" source="JjCetvQxHWMx8wX9W_r7-186" target="JjCetvQxHWMx8wX9W_r7-188">
          <mxGeometry relative="1" as="geometry" />
        </mxCell>
        <mxCell id="JjCetvQxHWMx8wX9W_r7-183" value="2" style="edgeLabel;html=1;align=center;verticalAlign=middle;resizable=0;points=[];" vertex="1" connectable="0" parent="JjCetvQxHWMx8wX9W_r7-182">
          <mxGeometry x="-0.175" y="-1" relative="1" as="geometry">
            <mxPoint as="offset" />
          </mxGeometry>
        </mxCell>
        <mxCell id="JjCetvQxHWMx8wX9W_r7-184" style="rounded=0;orthogonalLoop=1;jettySize=auto;html=1;entryX=0.25;entryY=0;entryDx=0;entryDy=0;" edge="1" parent="JjCetvQxHWMx8wX9W_r7-178" source="JjCetvQxHWMx8wX9W_r7-186" target="JjCetvQxHWMx8wX9W_r7-189">
          <mxGeometry relative="1" as="geometry" />
        </mxCell>
        <mxCell id="JjCetvQxHWMx8wX9W_r7-185" value="4" style="edgeLabel;html=1;align=center;verticalAlign=middle;resizable=0;points=[];" vertex="1" connectable="0" parent="JjCetvQxHWMx8wX9W_r7-184">
          <mxGeometry x="0.0722" y="-1" relative="1" as="geometry">
            <mxPoint as="offset" />
          </mxGeometry>
        </mxCell>
        <mxCell id="JjCetvQxHWMx8wX9W_r7-186" value="Number of arguments passed" style="whiteSpace=wrap;html=1;rounded=1;" vertex="1" parent="JjCetvQxHWMx8wX9W_r7-178">
          <mxGeometry x="152.5" y="100" width="125" height="30" as="geometry" />
        </mxCell>
        <mxCell id="JjCetvQxHWMx8wX9W_r7-187" style="rounded=0;orthogonalLoop=1;jettySize=auto;html=1;exitX=0.75;exitY=1;exitDx=0;exitDy=0;" edge="1" parent="JjCetvQxHWMx8wX9W_r7-178" source="JjCetvQxHWMx8wX9W_r7-188" target="JjCetvQxHWMx8wX9W_r7-190">
          <mxGeometry relative="1" as="geometry" />
        </mxCell>
        <mxCell id="JjCetvQxHWMx8wX9W_r7-188" value="call output_variables_activate_vnames" style="whiteSpace=wrap;html=1;rounded=1;fillColor=#CCFFCC;" vertex="1" parent="JjCetvQxHWMx8wX9W_r7-178">
          <mxGeometry x="20" y="160" width="190" height="40" as="geometry" />
        </mxCell>
        <mxCell id="JjCetvQxHWMx8wX9W_r7-189" value="call output_variables_activate_pntr" style="whiteSpace=wrap;html=1;rounded=1;fillColor=#CCFFCC;" vertex="1" parent="JjCetvQxHWMx8wX9W_r7-178">
          <mxGeometry x="220" y="160" width="180" height="40" as="geometry" />
        </mxCell>
        <mxCell id="JjCetvQxHWMx8wX9W_r7-190" value="end interface" style="whiteSpace=wrap;html=1;rounded=1;" vertex="1" parent="JjCetvQxHWMx8wX9W_r7-178">
          <mxGeometry x="170" y="240" width="97.5" height="30" as="geometry" />
        </mxCell>
        <mxCell id="JjCetvQxHWMx8wX9W_r7-191" style="edgeStyle=none;rounded=0;orthogonalLoop=1;jettySize=auto;html=1;exitX=0.25;exitY=1;exitDx=0;exitDy=0;" edge="1" parent="JjCetvQxHWMx8wX9W_r7-178" source="JjCetvQxHWMx8wX9W_r7-189">
          <mxGeometry relative="1" as="geometry">
            <mxPoint x="240" y="240" as="targetPoint" />
          </mxGeometry>
        </mxCell>
        <mxCell id="JjCetvQxHWMx8wX9W_r7-192" style="edgeStyle=none;rounded=0;orthogonalLoop=1;jettySize=auto;html=1;entryX=0.5;entryY=0;entryDx=0;entryDy=0;" edge="1" parent="JjCetvQxHWMx8wX9W_r7-178" source="JjCetvQxHWMx8wX9W_r7-193" target="JjCetvQxHWMx8wX9W_r7-195">
          <mxGeometry relative="1" as="geometry" />
        </mxCell>
        <mxCell id="JjCetvQxHWMx8wX9W_r7-193" value="&lt;b&gt;output_variables_activate_vnames (fields, vnames)&lt;/b&gt;" style="whiteSpace=wrap;html=1;rounded=1;fillColor=#FFFFFF;" vertex="1" parent="JjCetvQxHWMx8wX9W_r7-178">
          <mxGeometry x="106.25" y="680" width="217.5" height="50" as="geometry" />
        </mxCell>
        <mxCell id="JjCetvQxHWMx8wX9W_r7-194" value="" style="group" vertex="1" connectable="0" parent="JjCetvQxHWMx8wX9W_r7-178">
          <mxGeometry x="90" y="760" width="250" height="90" as="geometry" />
        </mxCell>
        <mxCell id="JjCetvQxHWMx8wX9W_r7-195" value="" style="rounded=0;whiteSpace=wrap;html=1;" vertex="1" parent="JjCetvQxHWMx8wX9W_r7-194">
          <mxGeometry width="250" height="90" as="geometry" />
        </mxCell>
        <mxCell id="JjCetvQxHWMx8wX9W_r7-196" value="&lt;b&gt;call output_variables_activate_pntr (fields, vnames(i))&lt;/b&gt;" style="whiteSpace=wrap;html=1;rounded=1;fillColor=#CCFFCC;" vertex="1" parent="JjCetvQxHWMx8wX9W_r7-194">
          <mxGeometry x="23.75" y="30" width="205" height="50" as="geometry" />
        </mxCell>
        <mxCell id="JjCetvQxHWMx8wX9W_r7-197" value="do i = 1, size(vnames)" style="text;html=1;align=center;verticalAlign=middle;whiteSpace=wrap;rounded=0;" vertex="1" parent="JjCetvQxHWMx8wX9W_r7-194">
          <mxGeometry x="6.25" y="4" width="120" height="20" as="geometry" />
        </mxCell>
        <mxCell id="JjCetvQxHWMx8wX9W_r7-198" value="end subroutine" style="whiteSpace=wrap;html=1;rounded=1;fillColor=#FFFFFF;" vertex="1" parent="JjCetvQxHWMx8wX9W_r7-178">
          <mxGeometry x="164.38" y="880" width="101.25" height="30" as="geometry" />
        </mxCell>
        <mxCell id="JjCetvQxHWMx8wX9W_r7-199" value="" style="edgeStyle=none;rounded=0;orthogonalLoop=1;jettySize=auto;html=1;exitX=0.5;exitY=1;exitDx=0;exitDy=0;" edge="1" parent="JjCetvQxHWMx8wX9W_r7-178" source="JjCetvQxHWMx8wX9W_r7-195" target="JjCetvQxHWMx8wX9W_r7-198">
          <mxGeometry relative="1" as="geometry">
            <mxPoint x="216" y="860" as="sourcePoint" />
          </mxGeometry>
        </mxCell>
        <mxCell id="JjCetvQxHWMx8wX9W_r7-200" style="edgeStyle=none;rounded=0;orthogonalLoop=1;jettySize=auto;html=1;" edge="1" parent="JjCetvQxHWMx8wX9W_r7-178" source="JjCetvQxHWMx8wX9W_r7-201" target="JjCetvQxHWMx8wX9W_r7-205">
          <mxGeometry relative="1" as="geometry">
            <mxPoint x="218.75" y="370" as="targetPoint" />
          </mxGeometry>
        </mxCell>
        <mxCell id="JjCetvQxHWMx8wX9W_r7-201" value="&lt;b&gt;output_variables_activate_pntr (fields, vname, pntr, ig)&lt;/b&gt;" style="whiteSpace=wrap;html=1;rounded=1;fillColor=#FFFFFF;" vertex="1" parent="JjCetvQxHWMx8wX9W_r7-178">
          <mxGeometry x="110" y="290" width="217.5" height="50" as="geometry" />
        </mxCell>
        <mxCell id="JjCetvQxHWMx8wX9W_r7-202" value="end subroutine" style="whiteSpace=wrap;html=1;rounded=1;fillColor=#FFFFFF;" vertex="1" parent="JjCetvQxHWMx8wX9W_r7-178">
          <mxGeometry x="170" y="620" width="101.25" height="30" as="geometry" />
        </mxCell>
        <mxCell id="JjCetvQxHWMx8wX9W_r7-203" value="" style="edgeStyle=none;rounded=0;orthogonalLoop=1;jettySize=auto;html=1;exitX=0.5;exitY=1;exitDx=0;exitDy=0;" edge="1" parent="JjCetvQxHWMx8wX9W_r7-178" source="JjCetvQxHWMx8wX9W_r7-206" target="JjCetvQxHWMx8wX9W_r7-202">
          <mxGeometry relative="1" as="geometry">
            <mxPoint x="215" y="610" as="sourcePoint" />
          </mxGeometry>
        </mxCell>
        <mxCell id="JjCetvQxHWMx8wX9W_r7-204" style="edgeStyle=none;rounded=0;orthogonalLoop=1;jettySize=auto;html=1;" edge="1" parent="JjCetvQxHWMx8wX9W_r7-178" source="JjCetvQxHWMx8wX9W_r7-205" target="JjCetvQxHWMx8wX9W_r7-208">
          <mxGeometry relative="1" as="geometry" />
        </mxCell>
        <mxCell id="JjCetvQxHWMx8wX9W_r7-205" value="Allocate output variable &lt;b&gt;vname &lt;/b&gt;(can be found in variable_namesf90)&amp;nbsp;and other associated variables&amp;nbsp;to&lt;b&gt;&amp;nbsp;fields &lt;/b&gt;array and associate it to &lt;b&gt;pntr.&lt;/b&gt;&lt;br&gt;&lt;b&gt;&amp;nbsp;e.g call output_variables_allocate(fields%fsin, n1, pntr)&lt;/b&gt;" style="whiteSpace=wrap;html=1;rounded=1;fillColor=#CCFFCC;" vertex="1" parent="JjCetvQxHWMx8wX9W_r7-178">
          <mxGeometry x="80" y="370" width="277.5" height="100" as="geometry" />
        </mxCell>
        <mxCell id="JjCetvQxHWMx8wX9W_r7-206" value="Assign &#39;NO_DATA&#39; to pntr is pointer not assigned" style="whiteSpace=wrap;html=1;rounded=1;" vertex="1" parent="JjCetvQxHWMx8wX9W_r7-178">
          <mxGeometry x="148.12" y="550" width="145.01" height="50" as="geometry" />
        </mxCell>
        <mxCell id="JjCetvQxHWMx8wX9W_r7-207" style="edgeStyle=none;rounded=0;orthogonalLoop=1;jettySize=auto;html=1;entryX=0.5;entryY=0;entryDx=0;entryDy=0;" edge="1" parent="JjCetvQxHWMx8wX9W_r7-178" source="JjCetvQxHWMx8wX9W_r7-208" target="JjCetvQxHWMx8wX9W_r7-206">
          <mxGeometry relative="1" as="geometry" />
        </mxCell>
        <mxCell id="JjCetvQxHWMx8wX9W_r7-208" value="Recurse on certain vname e.g.&amp;nbsp;&amp;nbsp;&lt;b&gt;VN_STGW, etc.&lt;/b&gt;" style="whiteSpace=wrap;html=1;rounded=1;" vertex="1" parent="JjCetvQxHWMx8wX9W_r7-178">
          <mxGeometry x="133.44000000000005" y="490" width="174.37" height="40" as="geometry" />
        </mxCell>
        <mxCell id="JjCetvQxHWMx8wX9W_r7-209" value="" style="group" vertex="1" connectable="0" parent="1">
          <mxGeometry x="40" y="1115" width="1270" height="655" as="geometry" />
        </mxCell>
        <mxCell id="JjCetvQxHWMx8wX9W_r7-210" value="" style="rounded=0;whiteSpace=wrap;html=1;" vertex="1" parent="JjCetvQxHWMx8wX9W_r7-209">
          <mxGeometry width="1270" height="655" as="geometry" />
        </mxCell>
        <mxCell id="JjCetvQxHWMx8wX9W_r7-211" value="" style="edgeStyle=orthogonalEdgeStyle;rounded=0;orthogonalLoop=1;jettySize=auto;html=1;" edge="1" parent="JjCetvQxHWMx8wX9W_r7-209" source="JjCetvQxHWMx8wX9W_r7-212" target="JjCetvQxHWMx8wX9W_r7-218">
          <mxGeometry relative="1" as="geometry" />
        </mxCell>
        <mxCell id="JjCetvQxHWMx8wX9W_r7-212" value="&lt;b&gt;output_variables_update(shd)&lt;/b&gt;" style="whiteSpace=wrap;html=1;rounded=1;fillColor=#FFFFFF;" vertex="1" parent="JjCetvQxHWMx8wX9W_r7-209">
          <mxGeometry x="80" y="35" width="177.95" height="40" as="geometry" />
        </mxCell>
        <mxCell id="JjCetvQxHWMx8wX9W_r7-213" value="end subroutine" style="whiteSpace=wrap;html=1;rounded=1;fillColor=#FFFFFF;" vertex="1" parent="JjCetvQxHWMx8wX9W_r7-209">
          <mxGeometry x="119.55047619047619" y="275.0011111111112" width="98.83928571428571" height="29.333333333333332" as="geometry" />
        </mxCell>
        <mxCell id="JjCetvQxHWMx8wX9W_r7-214" style="rounded=0;orthogonalLoop=1;jettySize=auto;html=1;exitX=0.5;exitY=1;exitDx=0;exitDy=0;" edge="1" parent="JjCetvQxHWMx8wX9W_r7-209" source="JjCetvQxHWMx8wX9W_r7-215" target="JjCetvQxHWMx8wX9W_r7-225">
          <mxGeometry relative="1" as="geometry" />
        </mxCell>
        <mxCell id="JjCetvQxHWMx8wX9W_r7-215" value="&lt;b&gt;output_variables_update_ts(shd)&lt;/b&gt;" style="whiteSpace=wrap;html=1;rounded=1;fillColor=#FFFFFF;" vertex="1" parent="JjCetvQxHWMx8wX9W_r7-209">
          <mxGeometry x="308.33" y="55" width="195.46" height="30" as="geometry" />
        </mxCell>
        <mxCell id="JjCetvQxHWMx8wX9W_r7-216" value="" style="edgeStyle=orthogonalEdgeStyle;rounded=0;orthogonalLoop=1;jettySize=auto;html=1;" edge="1" parent="JjCetvQxHWMx8wX9W_r7-209" source="JjCetvQxHWMx8wX9W_r7-218" target="JjCetvQxHWMx8wX9W_r7-221">
          <mxGeometry relative="1" as="geometry" />
        </mxCell>
        <mxCell id="JjCetvQxHWMx8wX9W_r7-217" style="edgeStyle=none;rounded=0;orthogonalLoop=1;jettySize=auto;html=1;exitX=1;exitY=0;exitDx=0;exitDy=0;entryX=0;entryY=0.5;entryDx=0;entryDy=0;" edge="1" parent="JjCetvQxHWMx8wX9W_r7-209" source="JjCetvQxHWMx8wX9W_r7-218" target="JjCetvQxHWMx8wX9W_r7-215">
          <mxGeometry relative="1" as="geometry" />
        </mxCell>
        <mxCell id="JjCetvQxHWMx8wX9W_r7-218" value="call output_variables_update_ts(shd)" style="whiteSpace=wrap;html=1;fillColor=#CCFFCC;rounded=1;" vertex="1" parent="JjCetvQxHWMx8wX9W_r7-209">
          <mxGeometry x="65.69999999999999" y="105" width="206.54" height="30" as="geometry" />
        </mxCell>
        <mxCell id="JjCetvQxHWMx8wX9W_r7-219" style="edgeStyle=orthogonalEdgeStyle;rounded=0;orthogonalLoop=1;jettySize=auto;html=1;" edge="1" parent="JjCetvQxHWMx8wX9W_r7-209" source="JjCetvQxHWMx8wX9W_r7-221" target="JjCetvQxHWMx8wX9W_r7-213">
          <mxGeometry relative="1" as="geometry" />
        </mxCell>
        <mxCell id="JjCetvQxHWMx8wX9W_r7-220" style="edgeStyle=none;rounded=0;orthogonalLoop=1;jettySize=auto;html=1;exitX=0;exitY=0.5;exitDx=0;exitDy=0;entryX=0.034;entryY=-0.033;entryDx=0;entryDy=0;entryPerimeter=0;" edge="1" parent="JjCetvQxHWMx8wX9W_r7-209" source="JjCetvQxHWMx8wX9W_r7-221" target="JjCetvQxHWMx8wX9W_r7-234">
          <mxGeometry relative="1" as="geometry">
            <Array as="points">
              <mxPoint x="20" y="205" />
            </Array>
          </mxGeometry>
        </mxCell>
        <mxCell id="JjCetvQxHWMx8wX9W_r7-221" value="For each Totals, Yearly, Monthly, Daily, Hourly values:&lt;div&gt;call output_variables_series_update&lt;br&gt;&lt;/div&gt;" style="whiteSpace=wrap;html=1;fillColor=#CCFFCC;rounded=1;" vertex="1" parent="JjCetvQxHWMx8wX9W_r7-209">
          <mxGeometry x="55.7" y="165" width="226.55" height="80" as="geometry" />
        </mxCell>
        <mxCell id="JjCetvQxHWMx8wX9W_r7-222" value="end subroutine" style="whiteSpace=wrap;html=1;rounded=1;fillColor=#FFFFFF;" vertex="1" parent="JjCetvQxHWMx8wX9W_r7-209">
          <mxGeometry x="344.6704761904761" y="235.00111111111096" width="98.83928571428571" height="29.333333333333332" as="geometry" />
        </mxCell>
        <mxCell id="JjCetvQxHWMx8wX9W_r7-223" style="edgeStyle=none;rounded=0;orthogonalLoop=1;jettySize=auto;html=1;exitX=0.5;exitY=1;exitDx=0;exitDy=0;" edge="1" parent="JjCetvQxHWMx8wX9W_r7-209" source="JjCetvQxHWMx8wX9W_r7-225" target="JjCetvQxHWMx8wX9W_r7-230">
          <mxGeometry relative="1" as="geometry" />
        </mxCell>
        <mxCell id="JjCetvQxHWMx8wX9W_r7-224" style="edgeStyle=none;rounded=0;orthogonalLoop=1;jettySize=auto;html=1;exitX=1;exitY=0.5;exitDx=0;exitDy=0;entryX=0;entryY=0.5;entryDx=0;entryDy=0;" edge="1" parent="JjCetvQxHWMx8wX9W_r7-209" source="JjCetvQxHWMx8wX9W_r7-225" target="JjCetvQxHWMx8wX9W_r7-227">
          <mxGeometry relative="1" as="geometry" />
        </mxCell>
        <mxCell id="JjCetvQxHWMx8wX9W_r7-225" value="&lt;div&gt;ro%RUNTILE == True&lt;/div&gt;" style="rhombus;whiteSpace=wrap;html=1;rounded=1;fillColor=#F19C99;" vertex="1" parent="JjCetvQxHWMx8wX9W_r7-209">
          <mxGeometry x="315.98999999999995" y="115" width="156.19047619047618" height="39.11111111111111" as="geometry" />
        </mxCell>
        <mxCell id="JjCetvQxHWMx8wX9W_r7-226" style="edgeStyle=none;rounded=0;orthogonalLoop=1;jettySize=auto;html=1;exitX=1;exitY=0.5;exitDx=0;exitDy=0;entryX=0;entryY=0.75;entryDx=0;entryDy=0;" edge="1" parent="JjCetvQxHWMx8wX9W_r7-209" source="JjCetvQxHWMx8wX9W_r7-227" target="JjCetvQxHWMx8wX9W_r7-247">
          <mxGeometry relative="1" as="geometry" />
        </mxCell>
        <mxCell id="JjCetvQxHWMx8wX9W_r7-227" value="call output_variables_group_update_ts (shd, out%ts%tile, vs%tile)" style="whiteSpace=wrap;html=1;fillColor=#CCFFCC;rounded=1;" vertex="1" parent="JjCetvQxHWMx8wX9W_r7-209">
          <mxGeometry x="503.7899999999999" y="104.1099999999999" width="214.49" height="50" as="geometry" />
        </mxCell>
        <mxCell id="JjCetvQxHWMx8wX9W_r7-228" style="edgeStyle=none;rounded=0;orthogonalLoop=1;jettySize=auto;html=1;entryX=0;entryY=0.5;entryDx=0;entryDy=0;" edge="1" parent="JjCetvQxHWMx8wX9W_r7-209" source="JjCetvQxHWMx8wX9W_r7-230" target="JjCetvQxHWMx8wX9W_r7-232">
          <mxGeometry relative="1" as="geometry" />
        </mxCell>
        <mxCell id="JjCetvQxHWMx8wX9W_r7-229" style="edgeStyle=none;rounded=0;orthogonalLoop=1;jettySize=auto;html=1;exitX=0.5;exitY=1;exitDx=0;exitDy=0;" edge="1" parent="JjCetvQxHWMx8wX9W_r7-209" source="JjCetvQxHWMx8wX9W_r7-230" target="JjCetvQxHWMx8wX9W_r7-222">
          <mxGeometry relative="1" as="geometry" />
        </mxCell>
        <mxCell id="JjCetvQxHWMx8wX9W_r7-230" value="&lt;div&gt;ro%RUNGRID== True&lt;/div&gt;" style="rhombus;whiteSpace=wrap;html=1;rounded=1;fillColor=#F19C99;" vertex="1" parent="JjCetvQxHWMx8wX9W_r7-209">
          <mxGeometry x="315.98999999999995" y="175.8900000000001" width="147.8" height="39.11" as="geometry" />
        </mxCell>
        <mxCell id="JjCetvQxHWMx8wX9W_r7-231" style="edgeStyle=none;rounded=0;orthogonalLoop=1;jettySize=auto;html=1;exitX=1;exitY=0;exitDx=0;exitDy=0;" edge="1" parent="JjCetvQxHWMx8wX9W_r7-209" source="JjCetvQxHWMx8wX9W_r7-232">
          <mxGeometry relative="1" as="geometry">
            <mxPoint x="790" y="35" as="targetPoint" />
          </mxGeometry>
        </mxCell>
        <mxCell id="JjCetvQxHWMx8wX9W_r7-232" value="&lt;div&gt;call output_variables_group_update_ts&amp;nbsp;&lt;/div&gt;&lt;div&gt;(shd, out%ts%grid, vs%grid)&lt;/div&gt;&lt;div&gt;call output_variables_group_update_ts (shd, out%ts%basin, vs%basin)&lt;/div&gt;" style="whiteSpace=wrap;html=1;fillColor=#CCFFCC;rounded=1;" vertex="1" parent="JjCetvQxHWMx8wX9W_r7-209">
          <mxGeometry x="503.79" y="162.22000000000003" width="224.02" height="66.45" as="geometry" />
        </mxCell>
        <mxCell id="JjCetvQxHWMx8wX9W_r7-233" style="rounded=0;orthogonalLoop=1;jettySize=auto;html=1;exitX=0.5;exitY=1;exitDx=0;exitDy=0;" edge="1" parent="JjCetvQxHWMx8wX9W_r7-209" source="JjCetvQxHWMx8wX9W_r7-234" target="JjCetvQxHWMx8wX9W_r7-238">
          <mxGeometry relative="1" as="geometry" />
        </mxCell>
        <mxCell id="JjCetvQxHWMx8wX9W_r7-234" value="&lt;b&gt;output_variables_series_update(shd, series, its)&lt;/b&gt;" style="whiteSpace=wrap;html=1;rounded=1;fillColor=#FFFFFF;" vertex="1" parent="JjCetvQxHWMx8wX9W_r7-209">
          <mxGeometry x="10.000000000000004" y="375" width="234.3" height="30" as="geometry" />
        </mxCell>
        <mxCell id="JjCetvQxHWMx8wX9W_r7-235" value="end subroutine" style="whiteSpace=wrap;html=1;rounded=1;fillColor=#FFFFFF;" vertex="1" parent="JjCetvQxHWMx8wX9W_r7-209">
          <mxGeometry x="73.68047619047611" y="556.951111111111" width="98.83928571428571" height="29.333333333333332" as="geometry" />
        </mxCell>
        <mxCell id="JjCetvQxHWMx8wX9W_r7-236" style="edgeStyle=none;rounded=0;orthogonalLoop=1;jettySize=auto;html=1;exitX=0.5;exitY=1;exitDx=0;exitDy=0;" edge="1" parent="JjCetvQxHWMx8wX9W_r7-209" source="JjCetvQxHWMx8wX9W_r7-238" target="JjCetvQxHWMx8wX9W_r7-243">
          <mxGeometry relative="1" as="geometry" />
        </mxCell>
        <mxCell id="JjCetvQxHWMx8wX9W_r7-237" style="edgeStyle=none;rounded=0;orthogonalLoop=1;jettySize=auto;html=1;exitX=1;exitY=0.5;exitDx=0;exitDy=0;entryX=0;entryY=0.5;entryDx=0;entryDy=0;" edge="1" parent="JjCetvQxHWMx8wX9W_r7-209" source="JjCetvQxHWMx8wX9W_r7-238" target="JjCetvQxHWMx8wX9W_r7-240">
          <mxGeometry relative="1" as="geometry" />
        </mxCell>
        <mxCell id="JjCetvQxHWMx8wX9W_r7-238" value="&lt;div&gt;ro%RUNTILE == True&lt;/div&gt;" style="rhombus;whiteSpace=wrap;html=1;rounded=1;fillColor=#F19C99;" vertex="1" parent="JjCetvQxHWMx8wX9W_r7-209">
          <mxGeometry x="44.99999999999996" y="429.55999999999995" width="156.19047619047618" height="39.11111111111111" as="geometry" />
        </mxCell>
        <mxCell id="JjCetvQxHWMx8wX9W_r7-239" style="edgeStyle=none;rounded=0;orthogonalLoop=1;jettySize=auto;html=1;exitX=1;exitY=0;exitDx=0;exitDy=0;entryX=0;entryY=0;entryDx=0;entryDy=0;" edge="1" parent="JjCetvQxHWMx8wX9W_r7-209" source="JjCetvQxHWMx8wX9W_r7-240" target="JjCetvQxHWMx8wX9W_r7-252">
          <mxGeometry relative="1" as="geometry">
            <mxPoint x="540" y="375" as="targetPoint" />
          </mxGeometry>
        </mxCell>
        <mxCell id="JjCetvQxHWMx8wX9W_r7-240" value="call output_variables_group_update (shd, series%tile, out%ts%tile, its)" style="whiteSpace=wrap;html=1;fillColor=#CCFFCC;rounded=1;" vertex="1" parent="JjCetvQxHWMx8wX9W_r7-209">
          <mxGeometry x="225.50999999999993" y="424.1199999999999" width="214.49" height="50" as="geometry" />
        </mxCell>
        <mxCell id="JjCetvQxHWMx8wX9W_r7-241" style="edgeStyle=none;rounded=0;orthogonalLoop=1;jettySize=auto;html=1;entryX=0;entryY=0.5;entryDx=0;entryDy=0;" edge="1" parent="JjCetvQxHWMx8wX9W_r7-209" source="JjCetvQxHWMx8wX9W_r7-243" target="JjCetvQxHWMx8wX9W_r7-245">
          <mxGeometry relative="1" as="geometry" />
        </mxCell>
        <mxCell id="JjCetvQxHWMx8wX9W_r7-242" style="edgeStyle=none;rounded=0;orthogonalLoop=1;jettySize=auto;html=1;exitX=0.5;exitY=1;exitDx=0;exitDy=0;" edge="1" parent="JjCetvQxHWMx8wX9W_r7-209" source="JjCetvQxHWMx8wX9W_r7-243" target="JjCetvQxHWMx8wX9W_r7-235">
          <mxGeometry relative="1" as="geometry" />
        </mxCell>
        <mxCell id="JjCetvQxHWMx8wX9W_r7-243" value="&lt;div&gt;ro%RUNGRID== True&lt;/div&gt;" style="rhombus;whiteSpace=wrap;html=1;rounded=1;fillColor=#F19C99;" vertex="1" parent="JjCetvQxHWMx8wX9W_r7-209">
          <mxGeometry x="49.19999999999996" y="496" width="147.8" height="39.11" as="geometry" />
        </mxCell>
        <mxCell id="JjCetvQxHWMx8wX9W_r7-244" style="edgeStyle=none;rounded=0;orthogonalLoop=1;jettySize=auto;html=1;exitX=1;exitY=0;exitDx=0;exitDy=0;entryX=0;entryY=0.25;entryDx=0;entryDy=0;" edge="1" parent="JjCetvQxHWMx8wX9W_r7-209" source="JjCetvQxHWMx8wX9W_r7-245" target="JjCetvQxHWMx8wX9W_r7-252">
          <mxGeometry relative="1" as="geometry">
            <mxPoint x="540" y="375" as="targetPoint" />
          </mxGeometry>
        </mxCell>
        <mxCell id="JjCetvQxHWMx8wX9W_r7-245" value="&lt;div&gt;call output_variables_group_update&amp;nbsp;&lt;/div&gt;&lt;div&gt;(shd, series%grid, out%ts%grid, its)&lt;/div&gt;&lt;div&gt;call output_variables_group_update&amp;nbsp;&lt;/div&gt;&lt;div&gt;(shd, series%basin, out%ts%basin, its)&lt;/div&gt;" style="whiteSpace=wrap;html=1;fillColor=#CCFFCC;rounded=1;" vertex="1" parent="JjCetvQxHWMx8wX9W_r7-209">
          <mxGeometry x="218.39" y="474.16999999999985" width="228.84" height="82.78" as="geometry" />
        </mxCell>
        <mxCell id="JjCetvQxHWMx8wX9W_r7-246" value="" style="edgeStyle=none;rounded=0;orthogonalLoop=1;jettySize=auto;html=1;" edge="1" parent="JjCetvQxHWMx8wX9W_r7-209" source="JjCetvQxHWMx8wX9W_r7-247" target="JjCetvQxHWMx8wX9W_r7-249">
          <mxGeometry relative="1" as="geometry" />
        </mxCell>
        <mxCell id="JjCetvQxHWMx8wX9W_r7-247" value="&lt;b&gt;output_variables_group_update_ts(shd, group, group_vs)&lt;/b&gt;" style="whiteSpace=wrap;html=1;rounded=1;fillColor=#FFFFFF;" vertex="1" parent="JjCetvQxHWMx8wX9W_r7-209">
          <mxGeometry x="790.62" y="15" width="250" height="30" as="geometry" />
        </mxCell>
        <mxCell id="JjCetvQxHWMx8wX9W_r7-248" style="edgeStyle=none;rounded=0;orthogonalLoop=1;jettySize=auto;html=1;exitX=0.5;exitY=1;exitDx=0;exitDy=0;" edge="1" parent="JjCetvQxHWMx8wX9W_r7-209" source="JjCetvQxHWMx8wX9W_r7-249" target="JjCetvQxHWMx8wX9W_r7-250">
          <mxGeometry relative="1" as="geometry" />
        </mxCell>
        <mxCell id="JjCetvQxHWMx8wX9W_r7-249" value="&lt;div&gt;Update output variables from current model states and variables.&amp;nbsp;&lt;span style=&quot;background-color: initial;&quot;&gt;Variables are updated if all elements of the group are equal to&amp;nbsp;&lt;/span&gt;&lt;span style=&quot;background-color: initial;&quot;&gt;the &#39;NO_DATA&#39; value; if not the case, updates are assumed to&amp;nbsp;&lt;/span&gt;&lt;span style=&quot;background-color: initial;&quot;&gt;have occured in the model (e.g., by process modules), and those&amp;nbsp;&lt;/span&gt;&lt;span style=&quot;background-color: initial;&quot;&gt;values are preserved.&lt;/span&gt;&lt;/div&gt;&lt;div&gt;&lt;span style=&quot;background-color: initial;&quot;&gt;&lt;br&gt;&lt;/span&gt;&lt;/div&gt;&lt;div style=&quot;text-align: left;&quot;&gt;&lt;span style=&quot;background-color: initial;&quot;&gt;e.g.&amp;nbsp;&lt;/span&gt;&lt;span style=&quot;background-color: initial;&quot;&gt;if (associated(group%vv)) then&lt;/span&gt;&lt;/div&gt;&lt;div style=&quot;text-align: left;&quot;&gt;&amp;nbsp; &amp;nbsp; &amp;nbsp; &amp;nbsp; &amp;nbsp; &amp;nbsp; if (all(group%vv == out%NO_DATA)) then&lt;/div&gt;&lt;div style=&quot;text-align: left;&quot;&gt;&amp;nbsp; &amp;nbsp; &amp;nbsp; &amp;nbsp; &amp;nbsp; &amp;nbsp; &amp;nbsp; &amp;nbsp; if (all(group_vs%vv /= huge(group_vs%vv))) &lt;span style=&quot;white-space: pre;&quot;&gt;&#x9;&lt;/span&gt;&lt;span style=&quot;white-space: pre;&quot;&gt;&#x9;&lt;/span&gt;then&lt;/div&gt;&lt;div style=&quot;text-align: left;&quot;&gt;&amp;nbsp; &amp;nbsp; &amp;nbsp; &amp;nbsp; &amp;nbsp; &amp;nbsp; &amp;nbsp; &amp;nbsp; &amp;nbsp; &amp;nbsp; group%vv = group_vs%vv&lt;/div&gt;&lt;div style=&quot;text-align: left;&quot;&gt;&amp;nbsp; &amp;nbsp; &amp;nbsp; &amp;nbsp; &amp;nbsp; &amp;nbsp; &amp;nbsp; &amp;nbsp; else&lt;/div&gt;&lt;div style=&quot;text-align: left;&quot;&gt;&amp;nbsp; &amp;nbsp; &amp;nbsp; &amp;nbsp; &amp;nbsp; &amp;nbsp; &amp;nbsp; &amp;nbsp; &amp;nbsp; &amp;nbsp; group%vv = 0.0&lt;/div&gt;" style="whiteSpace=wrap;html=1;fillColor=#FFFFFF;rounded=1;" vertex="1" parent="JjCetvQxHWMx8wX9W_r7-209">
          <mxGeometry x="770" y="75" width="291.25" height="214.88" as="geometry" />
        </mxCell>
        <mxCell id="JjCetvQxHWMx8wX9W_r7-250" value="end subroutine" style="whiteSpace=wrap;html=1;rounded=1;fillColor=#FFFFFF;" vertex="1" parent="JjCetvQxHWMx8wX9W_r7-209">
          <mxGeometry x="866.2004761904761" y="304.33111111111094" width="98.83928571428571" height="29.333333333333332" as="geometry" />
        </mxCell>
        <mxCell id="JjCetvQxHWMx8wX9W_r7-251" value="" style="edgeStyle=none;rounded=0;orthogonalLoop=1;jettySize=auto;html=1;" edge="1" parent="JjCetvQxHWMx8wX9W_r7-209" source="JjCetvQxHWMx8wX9W_r7-252" target="JjCetvQxHWMx8wX9W_r7-255">
          <mxGeometry relative="1" as="geometry" />
        </mxCell>
        <mxCell id="JjCetvQxHWMx8wX9W_r7-252" value="&lt;b&gt;output_variables_group_update(shd, group, group_vs)&lt;/b&gt;" style="whiteSpace=wrap;html=1;rounded=1;fillColor=#FFFFFF;" vertex="1" parent="JjCetvQxHWMx8wX9W_r7-209">
          <mxGeometry x="553.44" y="385" width="250" height="30" as="geometry" />
        </mxCell>
        <mxCell id="JjCetvQxHWMx8wX9W_r7-253" style="edgeStyle=none;rounded=0;orthogonalLoop=1;jettySize=auto;html=1;exitX=0.5;exitY=1;exitDx=0;exitDy=0;" edge="1" parent="JjCetvQxHWMx8wX9W_r7-209" source="JjCetvQxHWMx8wX9W_r7-255" target="JjCetvQxHWMx8wX9W_r7-256">
          <mxGeometry relative="1" as="geometry" />
        </mxCell>
        <mxCell id="JjCetvQxHWMx8wX9W_r7-254" style="rounded=0;orthogonalLoop=1;jettySize=auto;html=1;exitX=1;exitY=0;exitDx=0;exitDy=0;entryX=0;entryY=0.5;entryDx=0;entryDy=0;" edge="1" parent="JjCetvQxHWMx8wX9W_r7-209" source="JjCetvQxHWMx8wX9W_r7-255" target="JjCetvQxHWMx8wX9W_r7-258">
          <mxGeometry relative="1" as="geometry" />
        </mxCell>
        <mxCell id="JjCetvQxHWMx8wX9W_r7-255" value="&lt;div&gt;&lt;div&gt;Update output variables of larger time intervals from the &#39;ts&#39;&amp;nbsp;&lt;span style=&quot;background-color: initial;&quot;&gt;values.&lt;/span&gt;&lt;/div&gt;&lt;/div&gt;&lt;div&gt;&lt;span style=&quot;background-color: initial;&quot;&gt;&lt;br&gt;&lt;/span&gt;&lt;/div&gt;&lt;div style=&quot;text-align: left;&quot;&gt;&lt;span style=&quot;background-color: initial;&quot;&gt;&lt;span style=&quot;white-space: pre;&quot;&gt;&#x9;&lt;/span&gt;e.g.&amp;nbsp;&lt;/span&gt;&lt;span style=&quot;background-color: initial;&quot;&gt;if (associated(group%ifsin)) then&lt;/span&gt;&lt;/div&gt;&lt;div style=&quot;text-align: left;&quot;&gt;&amp;nbsp; &amp;nbsp; &amp;nbsp; &amp;nbsp; &amp;nbsp; call &lt;b&gt;output_variables_field_update&lt;/b&gt;(group%ifsin, &lt;span style=&quot;white-space: pre;&quot;&gt;&#x9;&lt;/span&gt;&lt;span style=&quot;white-space: pre;&quot;&gt;&#x9;&lt;/span&gt;group_ts%ifsin, its, &#39;sum&#39;)&lt;/div&gt;" style="whiteSpace=wrap;html=1;fillColor=#CCFFCC;rounded=1;" vertex="1" parent="JjCetvQxHWMx8wX9W_r7-209">
          <mxGeometry x="493.39" y="445.1199999999999" width="362.81" height="99.88" as="geometry" />
        </mxCell>
        <mxCell id="JjCetvQxHWMx8wX9W_r7-256" value="end subroutine" style="whiteSpace=wrap;html=1;rounded=1;fillColor=#FFFFFF;" vertex="1" parent="JjCetvQxHWMx8wX9W_r7-209">
          <mxGeometry x="626.5804761904762" y="565.7811111111109" width="98.83928571428571" height="29.333333333333332" as="geometry" />
        </mxCell>
        <mxCell id="JjCetvQxHWMx8wX9W_r7-257" style="edgeStyle=orthogonalEdgeStyle;rounded=0;orthogonalLoop=1;jettySize=auto;html=1;" edge="1" parent="JjCetvQxHWMx8wX9W_r7-209" source="JjCetvQxHWMx8wX9W_r7-258" target="JjCetvQxHWMx8wX9W_r7-261">
          <mxGeometry relative="1" as="geometry" />
        </mxCell>
        <mxCell id="JjCetvQxHWMx8wX9W_r7-258" value="&lt;b&gt;output_variables_field_update(dat, val, its, fn)&lt;/b&gt;" style="whiteSpace=wrap;html=1;rounded=1;fillColor=#FFFFFF;" vertex="1" parent="JjCetvQxHWMx8wX9W_r7-209">
          <mxGeometry x="940.03" y="385" width="269.95" height="30" as="geometry" />
        </mxCell>
        <mxCell id="JjCetvQxHWMx8wX9W_r7-259" value="end subroutine" style="whiteSpace=wrap;html=1;rounded=1;fillColor=#FFFFFF;" vertex="1" parent="JjCetvQxHWMx8wX9W_r7-209">
          <mxGeometry x="1025.5804761904762" y="595.7811111111109" width="98.83928571428571" height="29.333333333333332" as="geometry" />
        </mxCell>
        <mxCell id="JjCetvQxHWMx8wX9W_r7-260" style="edgeStyle=orthogonalEdgeStyle;rounded=0;orthogonalLoop=1;jettySize=auto;html=1;entryX=0.5;entryY=0;entryDx=0;entryDy=0;" edge="1" parent="JjCetvQxHWMx8wX9W_r7-209" source="JjCetvQxHWMx8wX9W_r7-261" target="JjCetvQxHWMx8wX9W_r7-263">
          <mxGeometry relative="1" as="geometry" />
        </mxCell>
        <mxCell id="JjCetvQxHWMx8wX9W_r7-261" value="Reset dat if it is the first time-step" style="whiteSpace=wrap;html=1;fillColor=#FFFFFF;rounded=1;" vertex="1" parent="JjCetvQxHWMx8wX9W_r7-209">
          <mxGeometry x="975" y="435" width="200" height="30" as="geometry" />
        </mxCell>
        <mxCell id="JjCetvQxHWMx8wX9W_r7-262" style="edgeStyle=orthogonalEdgeStyle;rounded=0;orthogonalLoop=1;jettySize=auto;html=1;" edge="1" parent="JjCetvQxHWMx8wX9W_r7-209" source="JjCetvQxHWMx8wX9W_r7-263" target="JjCetvQxHWMx8wX9W_r7-259">
          <mxGeometry relative="1" as="geometry" />
        </mxCell>
        <mxCell id="JjCetvQxHWMx8wX9W_r7-263" value="if fn == &#39;sum&#39; -&amp;gt;&amp;nbsp;Update the &#39;dat&#39; vector using the &#39;val&#39; vector&lt;div&gt;&lt;div&gt;if fn == &#39;avg&#39; -&amp;gt; Calculate an average using &#39;its&#39;&lt;/div&gt;&lt;/div&gt;&lt;div&gt;&lt;div&gt;if fn == &#39;max&#39; -&amp;gt; Update the &#39;dat&#39; vector using max of dat and val&lt;/div&gt;&lt;/div&gt;&lt;div&gt;if fn == &#39;min&#39; -&amp;gt; Update the &#39;dat&#39; vector using min of dat and val&lt;br&gt;&lt;/div&gt;" style="whiteSpace=wrap;html=1;fillColor=#FFFFFF;rounded=1;" vertex="1" parent="JjCetvQxHWMx8wX9W_r7-209">
          <mxGeometry x="900" y="486.28" width="350" height="88.72" as="geometry" />
        </mxCell>
      </root>
    </mxGraphModel>
  </diagram>
</mxfile>
